<svg width="218" height="382" viewBox="0 0 218 382" fill="none" xmlns="http://www.w3.org/2000/svg">
<g filter="url(#filter0_d)">
<circle cx="26.505" cy="184.505" r="125.505" transform="rotate(-90 26.505 184.505)" fill="white"/>
</g>
<circle cx="100.127" cy="135.18" r="2.65118" transform="rotate(-22.4791 100.127 135.18)" fill="#16217F"/>
<circle cx="110.406" cy="130.926" r="2.65118" transform="rotate(-22.4791 110.406 130.926)" fill="#16217F"/>
<circle cx="120.685" cy="126.673" r="2.65118" transform="rotate(-22.4791 120.685 126.673)" fill="#16217F"/>
<circle cx="130.964" cy="122.419" r="2.65118" transform="rotate(-22.4791 130.964 122.419)" fill="#16217F"/>
<circle cx="141.243" cy="118.166" r="2.65118" transform="rotate(-22.4791 141.243 118.166)" fill="#16217F"/>
<circle cx="151.523" cy="113.913" r="2.65118" transform="rotate(-22.4791 151.523 113.913)" fill="#16217F"/>
<circle cx="155.776" cy="124.192" r="2.65118" transform="rotate(-22.4791 155.776 124.192)" fill="#16217F"/>
<circle cx="160.03" cy="134.471" r="2.65118" transform="rotate(-22.4791 160.03 134.471)" fill="#16217F"/>
<circle cx="164.283" cy="144.751" r="2.65118" transform="rotate(-22.4791 164.283 144.751)" fill="#16217F"/>
<circle cx="168.537" cy="155.03" r="2.65118" transform="rotate(-22.4791 168.537 155.03)" fill="#16217F"/>
<circle cx="158.257" cy="159.283" r="2.65118" transform="rotate(-22.4791 158.257 159.283)" fill="#16217F"/>
<circle cx="147.978" cy="163.537" r="2.65118" transform="rotate(-22.4791 147.978 163.537)" fill="#16217F"/>
<circle cx="137.699" cy="167.79" r="2.65118" transform="rotate(-22.4791 137.699 167.79)" fill="#16217F"/>
<circle cx="127.419" cy="172.043" r="2.65118" transform="rotate(-22.4791 127.419 172.043)" fill="#16217F"/>
<circle cx="123.166" cy="161.764" r="2.65118" transform="rotate(-22.4791 123.166 161.764)" fill="#16217F"/>
<circle cx="118.913" cy="151.485" r="2.65118" transform="rotate(-22.4791 118.913 151.485)" fill="#16217F"/>
<circle cx="114.659" cy="141.206" r="2.65118" transform="rotate(-22.4791 114.659 141.206)" fill="#16217F"/>
<circle cx="124.938" cy="136.952" r="2.65118" transform="rotate(-22.4791 124.938 136.952)" fill="#16217F"/>
<circle cx="135.218" cy="132.699" r="2.65118" transform="rotate(-22.4791 135.218 132.699)" fill="#16217F"/>
<circle cx="145.497" cy="128.445" r="2.65118" transform="rotate(-22.4791 145.497 128.445)" fill="#16217F"/>
<circle cx="149.75" cy="138.725" r="2.65118" transform="rotate(-22.4791 149.75 138.725)" fill="#16217F"/>
<circle cx="154.004" cy="149.004" r="2.65118" transform="rotate(-22.4791 154.004 149.004)" fill="#16217F"/>
<circle cx="143.725" cy="153.257" r="2.65118" transform="rotate(-22.4791 143.725 153.257)" fill="#16217F"/>
<circle cx="133.445" cy="157.511" r="2.65118" transform="rotate(-22.4791 133.445 157.511)" fill="#16217F"/>
<circle cx="129.192" cy="147.231" r="2.65118" transform="rotate(-22.4791 129.192 147.231)" fill="#16217F"/>
<circle cx="139.471" cy="142.978" r="2.65118" transform="rotate(-22.4791 139.471 142.978)" fill="#16217F"/>
<circle cx="104.38" cy="145.459" r="2.65118" transform="rotate(-22.4791 104.38 145.459)" fill="#16217F"/>
<circle cx="108.633" cy="155.738" r="2.65118" transform="rotate(-22.4791 108.633 155.738)" fill="#16217F"/>
<circle cx="112.887" cy="166.018" r="2.65118" transform="rotate(-22.4791 112.887 166.018)" fill="#16217F"/>
<circle cx="117.14" cy="176.297" r="2.65118" transform="rotate(-22.4791 117.14 176.297)" fill="#16217F"/>
<defs>
<filter id="filter0_d" x="-164" y="0" width="381.01" height="381.01" filterUnits="userSpaceOnUse" color-interpolation-filters="sRGB">
<feFlood flood-opacity="0" result="BackgroundImageFix"/>
<feColorMatrix in="SourceAlpha" type="matrix" values="0 0 0 0 0 0 0 0 0 0 0 0 0 0 0 0 0 0 127 0" result="hardAlpha"/>
<feMorphology radius="4" operator="dilate" in="SourceAlpha" result="effect1_dropShadow"/>
<feOffset dy="6"/>
<feGaussianBlur stdDeviation="30.5"/>
<feColorMatrix type="matrix" values="0 0 0 0 0.845833 0 0 0 0 0.845833 0 0 0 0 0.845833 0 0 0 0.3 0"/>
<feBlend mode="normal" in2="BackgroundImageFix" result="effect1_dropShadow"/>
<feBlend mode="normal" in="SourceGraphic" in2="effect1_dropShadow" result="shape"/>
</filter>
</defs>
</svg>
