<svg width="118" height="145" viewBox="0 0 118 145" fill="none" xmlns="http://www.w3.org/2000/svg">
<circle r="5.54276" transform="matrix(-0.924019 -0.382347 -0.382347 0.924019 110.264 51.704)" fill="#16217F"/>
<circle r="5.54276" transform="matrix(-0.924019 -0.382347 -0.382347 0.924019 88.774 42.811)" fill="#16217F"/>
<circle r="5.54276" transform="matrix(-0.924019 -0.382347 -0.382347 0.924019 67.2835 33.9189)" fill="#16217F"/>
<circle r="5.54276" transform="matrix(-0.924019 -0.382347 -0.382347 0.924019 45.7922 25.0263)" fill="#16217F"/>
<circle r="5.54276" transform="matrix(-0.924019 -0.382347 -0.382347 0.924019 24.302 16.1332)" fill="#16217F"/>
<circle r="5.54276" transform="matrix(-0.924019 -0.382347 -0.382347 0.924019 2.81126 7.24113)" fill="#16217F"/>
<circle r="5.54276" transform="matrix(-0.924019 -0.382347 -0.382347 0.924019 -6.08144 28.7319)" fill="#16217F"/>
<circle r="5.54276" transform="matrix(-0.924019 -0.382347 -0.382347 0.924019 10.2221 110.989)" fill="#16217F"/>
<circle r="5.54276" transform="matrix(-0.924019 -0.382347 -0.382347 0.924019 31.7132 119.881)" fill="#16217F"/>
<circle r="5.54276" transform="matrix(-0.924019 -0.382347 -0.382347 0.924019 53.2037 128.774)" fill="#16217F"/>
<circle r="5.54276" transform="matrix(-0.924019 -0.382347 -0.382347 0.924019 62.0963 107.283)" fill="#16217F"/>
<circle r="5.54276" transform="matrix(-0.924019 -0.382347 -0.382347 0.924019 70.9887 85.7924)" fill="#16217F"/>
<circle r="5.54276" transform="matrix(-0.924019 -0.382347 -0.382347 0.924019 79.8813 64.3017)" fill="#16217F"/>
<circle r="5.54276" transform="matrix(-0.924019 -0.382347 -0.382347 0.924019 58.391 55.4096)" fill="#16217F"/>
<circle r="5.54276" transform="matrix(-0.924019 -0.382347 -0.382347 0.924019 36.8998 46.517)" fill="#16217F"/>
<circle r="5.54276" transform="matrix(-0.924019 -0.382347 -0.382347 0.924019 15.4094 37.6239)" fill="#16217F"/>
<circle r="5.54276" transform="matrix(-0.924019 -0.382347 -0.382347 0.924019 6.5167 59.1147)" fill="#16217F"/>
<circle r="5.54276" transform="matrix(-0.924019 -0.382347 -0.382347 0.924019 -2.37563 80.6059)" fill="#16217F"/>
<circle r="5.54276" transform="matrix(-0.924019 -0.382347 -0.382347 0.924019 19.1145 89.4975)" fill="#16217F"/>
<circle r="5.54276" transform="matrix(-0.924019 -0.382347 -0.382347 0.924019 40.6059 98.3905)" fill="#16217F"/>
<circle r="5.54276" transform="matrix(-0.924019 -0.382347 -0.382347 0.924019 49.4984 76.9003)" fill="#16217F"/>
<circle r="5.54276" transform="matrix(-0.924019 -0.382347 -0.382347 0.924019 28.0072 68.0077)" fill="#16217F"/>
<circle r="5.54276" transform="matrix(-0.924019 -0.382347 -0.382347 0.924019 101.372 73.1947)" fill="#16217F"/>
<circle r="5.54276" transform="matrix(-0.924019 -0.382347 -0.382347 0.924019 92.4796 94.6855)" fill="#16217F"/>
<circle r="5.54276" transform="matrix(-0.924019 -0.382347 -0.382347 0.924019 83.5869 116.176)" fill="#16217F"/>
<circle r="5.54276" transform="matrix(-0.924019 -0.382347 -0.382347 0.924019 74.6944 137.666)" fill="#16217F"/>
</svg>
