<svg width="246" height="489" viewBox="0 0 246 489" fill="none" xmlns="http://www.w3.org/2000/svg">
<path fill-rule="evenodd" clip-rule="evenodd" d="M241.314 100.667H241.876C242.497 100.667 243 100.983 243 101.373V135.278C243 135.668 242.497 135.985 241.876 135.985H241.314V100.667Z" fill="#121515"/>
<path fill-rule="evenodd" clip-rule="evenodd" d="M3 146.076C3 145.457 3.50329 144.955 4.12412 144.955H4.68618V180.273H4.12412C3.50329 180.273 3 179.771 3 179.152V146.076Z" fill="#121515"/>
<path fill-rule="evenodd" clip-rule="evenodd" d="M3 101.788C3 101.168 3.50329 100.667 4.12412 100.667H4.68618V135.985H4.12412C3.50329 135.985 3 135.483 3 134.863V101.788Z" fill="#121515"/>
<path fill-rule="evenodd" clip-rule="evenodd" d="M3 67.5909C3 66.9717 3.50329 66.4697 4.12412 66.4697H4.68618V84.9697H4.12412C3.50329 84.9697 3 84.4677 3 83.8485V67.5909Z" fill="#121515"/>
<g filter="url(#filter0_dd)">
<path fill-rule="evenodd" clip-rule="evenodd" d="M4.68622 37.3182C4.68622 17.8125 20.5397 2 40.0961 2H205.904C225.46 2 241.314 17.8125 241.314 37.3182V447.682C241.314 467.188 225.46 483 205.904 483H40.0961C20.5397 483 4.68622 467.188 4.68622 447.682V37.3182Z" fill="#3A4245"/>
</g>
<path fill-rule="evenodd" clip-rule="evenodd" d="M7 37.5152C7 19.5575 21.5953 5 39.5995 5H205.408C223.412 5 238.007 19.5575 238.007 37.5152V447.879C238.007 465.836 223.412 480.394 205.408 480.394H39.5995C21.5953 480.394 7 465.836 7 447.879V37.5152Z" fill="#121515"/>
<path fill-rule="evenodd" clip-rule="evenodd" d="M101.361 33.3942C101.361 32.4654 102.114 31.7124 103.042 31.7124H142.957C143.886 31.7124 144.639 32.4654 144.639 33.3942C144.639 34.3231 143.886 35.076 142.957 35.076H103.042C102.114 35.076 101.361 34.3231 101.361 33.3942Z" fill="#262C2D"/>
<path fill-rule="evenodd" clip-rule="evenodd" d="M82.2506 37.8789C84.734 37.8789 86.7471 35.8709 86.7471 33.394C86.7471 30.9171 84.734 28.9092 82.2506 28.9092C79.7673 28.9092 77.7542 30.9171 77.7542 33.394C77.7542 35.8709 79.7673 37.8789 82.2506 37.8789Z" fill="#262C2D"/>
<path fill-rule="evenodd" clip-rule="evenodd" d="M82.2506 36.1969C83.8027 36.1969 85.0609 34.9419 85.0609 33.3939C85.0609 31.8458 83.8027 30.5908 82.2506 30.5908C80.6985 30.5908 79.4403 31.8458 79.4403 33.3939C79.4403 34.9419 80.6985 36.1969 82.2506 36.1969Z" fill="#121515"/>
<path opacity="0.4" fill-rule="evenodd" clip-rule="evenodd" d="M82.2507 32.8336C82.5611 32.8336 82.8127 32.5826 82.8127 32.273C82.8127 31.9634 82.5611 31.7124 82.2507 31.7124C81.9402 31.7124 81.6886 31.9634 81.6886 32.273C81.6886 32.5826 81.9402 32.8336 82.2507 32.8336Z" fill="#636F73"/>
<path fill-rule="evenodd" clip-rule="evenodd" d="M123 22.1818C124.707 22.1818 126.091 20.8013 126.091 19.0985C126.091 17.3956 124.707 16.0151 123 16.0151C121.293 16.0151 119.909 17.3956 119.909 19.0985C119.909 20.8013 121.293 22.1818 123 22.1818Z" fill="#262C2D"/>
<path fill-rule="evenodd" clip-rule="evenodd" d="M105.295 454.689C105.295 464.442 113.222 472.348 123 472.348C132.778 472.348 140.705 464.442 140.705 454.689C140.705 444.937 132.778 437.03 123 437.03C113.222 437.03 105.295 444.937 105.295 454.689ZM138.457 454.689C138.457 463.204 131.536 470.106 123 470.106C114.463 470.106 107.543 463.204 107.543 454.689C107.543 446.175 114.463 439.273 123 439.273C131.536 439.273 138.457 446.175 138.457 454.689Z" fill="#262C2D"/>
<path fill-rule="evenodd" clip-rule="evenodd" d="M16 57C16 55.3432 17.3431 54 19 54H227C228.657 54 230 55.3431 230 57V428C230 429.657 228.657 431 227 431H19C17.3432 431 16 429.657 16 428V57Z" fill="white"/>
<rect x="16" y="54" width="214" height="42" rx="3" fill="url(#paint0_linear)"/>
<path d="M42.15 70.2V80H40.288L35.402 74.05V80H33.162V70.2H35.038L39.91 76.15V70.2H42.15ZM46.7366 72.02V74.61H51.2726V76.43H46.7366V80H44.4686V70.2H51.8746V72.02H46.7366ZM55.5084 72.048H52.3724V70.2H60.9124V72.048H57.7764V80H55.5084V72.048Z" fill="#6749EA"/>
<path d="M75.0155 80L75.0015 74.12L72.1175 78.964H71.0955L68.2255 74.246V80H66.0975V70.2H67.9735L71.6415 76.29L75.2535 70.2H77.1155L77.1435 80H75.0155ZM82.3526 72.356C83.5193 72.356 84.4153 72.636 85.0406 73.196C85.666 73.7467 85.9786 74.582 85.9786 75.702V80H83.9346V79.062C83.524 79.762 82.7586 80.112 81.6386 80.112C81.06 80.112 80.556 80.014 80.1266 79.818C79.7066 79.622 79.3846 79.3513 79.1606 79.006C78.9366 78.6607 78.8246 78.2687 78.8246 77.83C78.8246 77.13 79.086 76.5793 79.6086 76.178C80.1406 75.7767 80.9573 75.576 82.0586 75.576H83.7946C83.7946 75.1 83.65 74.736 83.3606 74.484C83.0713 74.2227 82.6373 74.092 82.0586 74.092C81.6573 74.092 81.2606 74.1573 80.8686 74.288C80.486 74.4093 80.1593 74.5773 79.8886 74.792L79.1046 73.266C79.5153 72.9767 80.0053 72.7527 80.5746 72.594C81.1533 72.4353 81.746 72.356 82.3526 72.356ZM82.1846 78.642C82.558 78.642 82.8893 78.558 83.1786 78.39C83.468 78.2127 83.6733 77.956 83.7946 77.62V76.85H82.2966C81.4006 76.85 80.9526 77.144 80.9526 77.732C80.9526 78.012 81.06 78.236 81.2746 78.404C81.4986 78.5627 81.802 78.642 82.1846 78.642ZM90.4893 80.112C89.8639 80.112 89.2526 80.0373 88.6553 79.888C88.0579 79.7293 87.5819 79.5333 87.2273 79.3L87.9553 77.732C88.2913 77.9467 88.6973 78.124 89.1733 78.264C89.6493 78.3947 90.1159 78.46 90.5733 78.46C91.4973 78.46 91.9593 78.2313 91.9593 77.774C91.9593 77.5593 91.8333 77.4053 91.5813 77.312C91.3293 77.2187 90.9419 77.1393 90.4193 77.074C89.8033 76.9807 89.2946 76.8733 88.8933 76.752C88.4919 76.6307 88.1419 76.416 87.8433 76.108C87.5539 75.8 87.4093 75.3613 87.4093 74.792C87.4093 74.316 87.5446 73.896 87.8153 73.532C88.0953 73.1587 88.4966 72.8693 89.0193 72.664C89.5513 72.4587 90.1766 72.356 90.8953 72.356C91.4273 72.356 91.9546 72.4167 92.4773 72.538C93.0093 72.65 93.4479 72.8087 93.7933 73.014L93.0653 74.568C92.4026 74.1947 91.6793 74.008 90.8953 74.008C90.4286 74.008 90.0786 74.0733 89.8453 74.204C89.6119 74.3347 89.4953 74.5027 89.4953 74.708C89.4953 74.9413 89.6213 75.1047 89.8733 75.198C90.1253 75.2913 90.5266 75.38 91.0773 75.464C91.6933 75.5667 92.1973 75.6787 92.5893 75.8C92.9813 75.912 93.3219 76.122 93.6113 76.43C93.9006 76.738 94.0453 77.1673 94.0453 77.718C94.0453 78.1847 93.9053 78.6 93.6253 78.964C93.3453 79.328 92.9346 79.6127 92.3933 79.818C91.8613 80.014 91.2266 80.112 90.4893 80.112ZM100.251 79.636C100.036 79.7947 99.7701 79.916 99.4528 80C99.1448 80.0747 98.8181 80.112 98.4728 80.112C97.5768 80.112 96.8814 79.8833 96.3868 79.426C95.9014 78.9687 95.6588 78.2967 95.6588 77.41V74.316H94.4968V72.636H95.6588V70.802H97.8428V72.636H99.7188V74.316H97.8428V77.382C97.8428 77.6993 97.9221 77.9467 98.0808 78.124C98.2488 78.292 98.4821 78.376 98.7808 78.376C99.1261 78.376 99.4201 78.2827 99.6628 78.096L100.251 79.636ZM108.622 76.262C108.622 76.29 108.608 76.486 108.58 76.85H102.882C102.985 77.3167 103.228 77.6853 103.61 77.956C103.993 78.2267 104.469 78.362 105.038 78.362C105.43 78.362 105.776 78.306 106.074 78.194C106.382 78.0727 106.667 77.886 106.928 77.634L108.09 78.894C107.381 79.706 106.345 80.112 104.982 80.112C104.133 80.112 103.382 79.9487 102.728 79.622C102.075 79.286 101.571 78.824 101.216 78.236C100.862 77.648 100.684 76.9807 100.684 76.234C100.684 75.4967 100.857 74.834 101.202 74.246C101.557 73.6487 102.038 73.1867 102.644 72.86C103.26 72.524 103.946 72.356 104.702 72.356C105.44 72.356 106.107 72.5147 106.704 72.832C107.302 73.1493 107.768 73.6067 108.104 74.204C108.45 74.792 108.622 75.478 108.622 76.262ZM104.716 74.008C104.222 74.008 103.806 74.148 103.47 74.428C103.134 74.708 102.929 75.0907 102.854 75.576H106.564C106.49 75.1 106.284 74.722 105.948 74.442C105.612 74.1527 105.202 74.008 104.716 74.008ZM112.162 73.462C112.424 73.098 112.774 72.8227 113.212 72.636C113.66 72.4493 114.174 72.356 114.752 72.356V74.372C114.51 74.3533 114.346 74.344 114.262 74.344C113.637 74.344 113.147 74.5213 112.792 74.876C112.438 75.2213 112.26 75.744 112.26 76.444V80H110.076V72.468H112.162V73.462ZM118.612 80.112C117.987 80.112 117.376 80.0373 116.778 79.888C116.181 79.7293 115.705 79.5333 115.35 79.3L116.078 77.732C116.414 77.9467 116.82 78.124 117.296 78.264C117.772 78.3947 118.239 78.46 118.696 78.46C119.62 78.46 120.082 78.2313 120.082 77.774C120.082 77.5593 119.956 77.4053 119.704 77.312C119.452 77.2187 119.065 77.1393 118.542 77.074C117.926 76.9807 117.418 76.8733 117.016 76.752C116.615 76.6307 116.265 76.416 115.966 76.108C115.677 75.8 115.532 75.3613 115.532 74.792C115.532 74.316 115.668 73.896 115.938 73.532C116.218 73.1587 116.62 72.8693 117.142 72.664C117.674 72.4587 118.3 72.356 119.018 72.356C119.55 72.356 120.078 72.4167 120.6 72.538C121.132 72.65 121.571 72.8087 121.916 73.014L121.188 74.568C120.526 74.1947 119.802 74.008 119.018 74.008C118.552 74.008 118.202 74.0733 117.968 74.204C117.735 74.3347 117.618 74.5027 117.618 74.708C117.618 74.9413 117.744 75.1047 117.996 75.198C118.248 75.2913 118.65 75.38 119.2 75.464C119.816 75.5667 120.32 75.6787 120.712 75.8C121.104 75.912 121.445 76.122 121.734 76.43C122.024 76.738 122.168 77.1673 122.168 77.718C122.168 78.1847 122.028 78.6 121.748 78.964C121.468 79.328 121.058 79.6127 120.516 79.818C119.984 80.014 119.35 80.112 118.612 80.112Z" fill="white"/>
<defs>
<filter id="filter0_dd" x="0.686218" y="0" width="244.628" height="489" filterUnits="userSpaceOnUse" color-interpolation-filters="sRGB">
<feFlood flood-opacity="0" result="BackgroundImageFix"/>
<feColorMatrix in="SourceAlpha" type="matrix" values="0 0 0 0 0 0 0 0 0 0 0 0 0 0 0 0 0 0 127 0" result="hardAlpha"/>
<feOffset/>
<feGaussianBlur stdDeviation="1"/>
<feColorMatrix type="matrix" values="0 0 0 0 0 0 0 0 0 0.0823529 0 0 0 0 0.25098 0 0 0 0.14 0"/>
<feBlend mode="normal" in2="BackgroundImageFix" result="effect1_dropShadow"/>
<feColorMatrix in="SourceAlpha" type="matrix" values="0 0 0 0 0 0 0 0 0 0 0 0 0 0 0 0 0 0 127 0" result="hardAlpha"/>
<feOffset dy="2"/>
<feGaussianBlur stdDeviation="2"/>
<feColorMatrix type="matrix" values="0 0 0 0 0 0 0 0 0 0.0823529 0 0 0 0 0.25098 0 0 0 0.05 0"/>
<feBlend mode="normal" in2="effect1_dropShadow" result="effect2_dropShadow"/>
<feBlend mode="normal" in="SourceGraphic" in2="effect2_dropShadow" result="shape"/>
</filter>
<linearGradient id="paint0_linear" x1="16" y1="69.9231" x2="229.342" y2="75.522" gradientUnits="userSpaceOnUse">
<stop stop-color="#050B43"/>
<stop offset="1" stop-color="#172180"/>
</linearGradient>
</defs>
</svg>
